<svg width="15" height="30" viewBox="0 0 15 30" fill="none" xmlns="http://www.w3.org/2000/svg">
<path d="M0 0H15V11.775C15 12.35 14.875 12.8625 14.625 13.3125C14.375 13.7625 14.025 14.125 13.575 14.4L8.25 17.55L9.3 21H15L10.35 24.3L12.15 30L7.5 26.475L2.85 30L4.65 24.3L0 21H5.7L6.75 17.55L1.425 14.4C0.975 14.125 0.625 13.7625 0.375 13.3125C0.125 12.8625 0 12.35 0 11.775V0V0M3 3V11.775V11.775V11.775L6 13.575V3H3V3M12 3H9V13.575L12 11.775V11.775V11.775V3V3M7.5 8.7375V8.7375V8.7375V8.7375V8.7375V8.7375V8.7375M6 8.2875V8.2875V8.2875V8.2875V8.2875V8.2875V8.2875V8.2875M9 8.2875V8.2875V8.2875V8.2875V8.2875V8.2875V8.2875V8.2875" fill="#FFD700"/>
</svg>
